<svg width="60" height="60" viewBox="0 0 60 60" fill="none" xmlns="http://www.w3.org/2000/svg">
<rect width="60" height="60" rx="8" fill="#0C46D3"/>
<path d="M25 20H31.6163C31.9477 20.0001 32.2656 20.1318 32.5 20.3663L37.1337 25C37.3682 25.2344 37.4999 25.5523 37.5 25.8837V37.5C37.5 38.163 37.2366 38.7989 36.7678 39.2678C36.2989 39.7366 35.663 40 35 40H25C24.337 40 23.7011 39.7366 23.2322 39.2678C22.7634 38.7989 22.5 38.163 22.5 37.5V22.5C22.5 21.837 22.7634 21.2011 23.2322 20.7322C23.7011 20.2634 24.337 20 25 20V20ZM31.875 21.875V24.375C31.875 24.7065 32.0067 25.0245 32.2411 25.2589C32.4755 25.4933 32.7935 25.625 33.125 25.625H35.625L31.875 21.875Z" fill="white"/>
</svg>
