<svg width="60" height="60" viewBox="0 0 60 60" fill="none" xmlns="http://www.w3.org/2000/svg">
<rect width="60" height="60" rx="8" fill="#0C46D3"/>
<g clip-path="url(#clip0_19_104)">
<path d="M31.25 18.2427C31.25 17.0032 29.6536 16.536 28.9505 17.5636C22.5 26.9922 31.6667 27.4167 31.6667 32C31.6667 33.8558 30.1505 35.3573 28.2891 35.3328C26.4573 35.3094 25 33.7823 25 31.9506V27.4969C25 26.3667 23.6214 25.8183 22.8422 26.6375C21.4479 28.1021 20 30.611 20 33.6667C20 39.1808 24.4859 43.6667 30 43.6667C35.5141 43.6667 40 39.1808 40 33.6667C40 24.7974 31.25 23.6146 31.25 18.2427Z" fill="white"/>
</g>
<defs>
<clipPath id="clip0_19_104">
<rect width="20" height="26.6667" fill="white" transform="translate(20 17)"/>
</clipPath>
</defs>
</svg>
