<svg width="150" height="28" viewBox="0 0 150 28" fill="none" xmlns="http://www.w3.org/2000/svg">
<path d="M53.7793 12.4709V5.14453H56.2577V19.358H54.3203L45.6107 9.21186L45.6754 12.6296V19.358H43.1875V5.14453H45.1135L53.8784 15.7631L53.7793 12.4709Z" fill="white"/>
<path d="M65.0969 19.5248C63.3938 19.5248 61.9879 19.0597 60.8773 18.1315C60.3211 17.6627 59.8886 17.0648 59.5781 16.334C59.2676 15.6032 59.1133 14.7876 59.1133 13.887C59.1133 12.9864 59.2657 12.1615 59.5724 11.4141C59.8791 10.6667 60.302 10.0559 60.843 9.57975C61.946 8.59429 63.2948 8.10156 64.8893 8.10156C66.4552 8.10156 67.7601 8.52417 68.8059 9.36938C69.3317 9.78829 69.7451 10.3345 70.0442 11.01C70.3433 11.6835 70.4938 12.4402 70.4938 13.2798C70.4938 13.6508 70.4538 14.0974 70.3757 14.6215H61.6012C61.7308 15.725 62.1575 16.537 62.8776 17.0537C63.5405 17.5151 64.2987 17.7458 65.1502 17.7458C66.2818 17.7458 67.3619 17.4837 68.3849 16.9596L69.5756 18.2902C68.9907 18.674 68.303 18.9748 67.5086 19.1908C66.6952 19.4122 65.8913 19.5248 65.0969 19.5248ZM61.6126 12.9108H68.1582C68.143 11.9401 67.8401 11.1982 67.2495 10.6889C66.6571 10.1648 65.897 9.9027 64.9674 9.9027C64.0511 9.9027 63.2833 10.1611 62.6623 10.6778C62.0489 11.189 61.7003 11.9327 61.6126 12.9108Z" fill="white"/>
<path d="M76.4042 19.5247C74.8097 19.5247 73.2629 19.2109 71.7617 18.5817L72.497 16.8636C73.9468 17.395 75.2822 17.6608 76.4995 17.6608C76.7738 17.6608 77.0348 17.6405 77.2843 17.598C77.5339 17.5556 77.7739 17.4855 78.0101 17.3877C78.2444 17.2898 78.4311 17.1441 78.5664 16.9521C78.7036 16.7602 78.7721 16.5351 78.7721 16.2767C78.7721 15.8855 78.5874 15.5644 78.2197 15.3115C78.054 15.1934 77.7796 15.0883 77.3967 14.9978C77.1586 14.9277 76.9929 14.8834 76.8995 14.8613L76.3909 14.7358C76.0518 14.638 75.8213 14.5752 75.6975 14.5475L75.0269 14.3372C74.7602 14.2541 74.5335 14.1729 74.3449 14.0954L73.7505 13.8223C73.52 13.7171 73.3295 13.6101 73.1771 13.4975C73.0114 13.3646 72.859 13.2354 72.7218 13.11C72.318 12.7113 72.0951 12.1448 72.0513 11.4122C72.0513 10.9434 72.137 10.5208 72.3046 10.1443C72.4742 9.76788 72.7028 9.45231 72.9924 9.20133C73.28 8.95035 73.6229 8.73998 74.0211 8.57204C74.4173 8.40411 74.8307 8.28415 75.2593 8.21034C75.6879 8.13652 76.1413 8.09961 76.6176 8.09961C77.8806 8.09961 79.2503 8.40411 80.7286 9.01126L79.9608 10.6777C78.8502 10.2366 77.7358 10.017 76.6176 10.017C75.1888 10.017 74.4744 10.4636 74.4744 11.3586C74.4744 11.5192 74.5068 11.6705 74.5716 11.8089C74.6516 11.9492 74.7297 12.0562 74.8097 12.1337C74.8897 12.2112 75.0193 12.2869 75.1983 12.3644C75.4155 12.4548 75.5622 12.5139 75.6422 12.5434C75.9889 12.6412 76.1832 12.6966 76.227 12.7113L76.8214 12.8682L77.4062 13.0361C77.7815 13.1339 78.0006 13.193 78.0654 13.2151C78.1797 13.2428 78.393 13.3056 78.7036 13.4034C78.9855 13.4938 79.2008 13.5824 79.3532 13.6654C79.9018 13.9386 80.2619 14.1729 80.4352 14.3685C80.94 14.9074 81.1934 15.5219 81.1934 16.214C81.1934 16.703 81.1039 17.1404 80.9229 17.5242C80.7419 17.9081 80.5019 18.2236 80.1971 18.4672C79.8942 18.7127 79.5341 18.9157 79.115 19.0799C78.6959 19.2442 78.2635 19.3586 77.8158 19.425C77.3739 19.4915 76.9014 19.5247 76.4042 19.5247Z" fill="white"/>
<path d="M86.8119 5.16406V8.26623H89.658V10.143H86.8005V15.7199C86.8005 16.4673 86.9091 16.984 87.1244 17.2719C87.3472 17.5506 87.7587 17.6908 88.3569 17.6908C88.8617 17.6908 89.3742 17.5727 89.8942 17.3347L90.4791 19.0214C89.6713 19.3573 88.7436 19.5252 87.6978 19.5252C86.5357 19.5252 85.688 19.2189 85.1546 18.608C84.6212 17.9972 84.3545 17.0339 84.3545 15.7199V10.143H82.5371V8.26623H84.3545V5.61435L86.8119 5.16406Z" fill="white"/>
<path d="M94.6374 3.875V19.3563H92.1914V3.875H94.6374Z" fill="white"/>
<path d="M105.065 11.2755L106.265 8.26747H108.949L101.906 23.8632H99.2869L101.43 19.1038L96.6484 8.26562H99.3002L100.394 11.1796L102.731 16.7251L105.065 11.2755Z" fill="white"/>
<path d="M113.701 15.1855V19.358H111.234V5.14453H117.932C118.805 5.14453 119.599 5.28294 120.314 5.55791C121.028 5.83472 121.609 6.21303 122.055 6.69469C122.963 7.68753 123.419 8.84278 123.419 10.1641C123.419 11.526 122.963 12.6905 122.055 13.6538C121.607 14.1299 121.026 14.5027 120.314 14.7758C119.599 15.049 118.805 15.1837 117.932 15.1837H113.701V15.1855ZM113.701 13.2146H117.932C118.885 13.2146 119.624 12.9212 120.15 12.3343C120.683 11.7327 120.95 11.0167 120.95 10.1862C120.95 9.34104 120.683 8.61763 120.15 8.01602C119.616 7.41441 118.877 7.11545 117.932 7.11545H113.701V13.2146Z" fill="white"/>
<path d="M129.583 19.5246C128.105 19.5246 126.907 19.0078 125.99 17.9726C125.066 16.9317 124.605 15.5661 124.605 13.8739C124.605 12.1834 125.089 10.7957 126.055 9.71241C127.015 8.63652 128.212 8.09766 129.648 8.09766C130.94 8.09766 132.187 8.31726 133.391 8.75832L135.403 8.18254L135.782 8.22499V19.3566H133.336L133.466 18.5077C132.715 18.8639 132.06 19.1223 131.496 19.2828C130.894 19.4434 130.256 19.5246 129.583 19.5246ZM130.191 17.5961C131.265 17.5961 132.326 17.4005 133.372 17.0092V13.7816C133.372 12.237 133.368 11.2072 133.361 10.6886C133.058 10.5484 132.589 10.4063 131.955 10.2587C131.378 10.1258 130.804 10.0593 130.235 10.0593C129.37 10.0593 128.619 10.3952 127.985 11.0651C127.351 11.7221 127.032 12.6263 127.032 13.7797C127.032 14.8981 127.32 15.8171 127.897 16.5368C128.48 17.2436 129.244 17.5961 130.191 17.5961Z" fill="white"/>
<path d="M146.116 11.2755L147.316 8.26747H150L142.957 23.8632H140.338L142.481 19.1038L137.699 8.26562H140.351L141.444 11.1796L143.782 16.7251L146.116 11.2755Z" fill="white"/>
<path d="M0.0152404 4.46594L7.83909 0L26.5119 10.2255L26.51 15.8227L7.89053 5.46616L4.95111 7.33559V27.5523L0 27.5504L0.0152404 4.46594Z" fill="white"/>
<path d="M30.2155 0.0936441L35.178 0.0917969L35.1799 23.1966L27.2951 27.6662L8.66987 17.4647L8.66797 11.8066L27.2894 22.1595L30.2269 20.3066L30.2155 0.0936441Z" fill="#0D3866"/>
</svg>
